<?xml version="1.0" encoding="UTF-8" standalone="no"?>
<!-- Created with Inkscape (http://www.inkscape.org/) -->

<svg
   xmlns:dc="http://purl.org/dc/elements/1.1/"
   xmlns:cc="http://creativecommons.org/ns#"
   xmlns:rdf="http://www.w3.org/1999/02/22-rdf-syntax-ns#"
   xmlns:svg="http://www.w3.org/2000/svg"
   xmlns="http://www.w3.org/2000/svg"
   xmlns:xlink="http://www.w3.org/1999/xlink"
   xmlns:sodipodi="http://sodipodi.sourceforge.net/DTD/sodipodi-0.dtd"
   xmlns:inkscape="http://www.inkscape.org/namespaces/inkscape"
   id="svg4190"
   version="1.1"
   inkscape:version="0.91 r13725"
   xml:space="preserve"
   width="305.62704"
   height="164.00787"
   viewBox="0 0 305.62704 164.00787"
   sodipodi:docname="ray_marching_problems.svg"
   inkscape:export-filename="/Users/so/projects/mte7101-proj1/doc/img/ray_marching_problems.png"
   inkscape:export-xdpi="299.84854"
   inkscape:export-ydpi="299.84854"
   style="enable-background:new"><metadata
     id="metadata4196"><rdf:RDF><cc:Work
         rdf:about=""><dc:format>image/svg+xml</dc:format><dc:type
           rdf:resource="http://purl.org/dc/dcmitype/StillImage" /><dc:title></dc:title></cc:Work></rdf:RDF></metadata><defs
     id="defs4194"><linearGradient
       inkscape:collect="always"
       id="linearGradient4309"><stop
         style="stop-color:#004455;stop-opacity:1;"
         offset="0"
         id="stop4311" /><stop
         style="stop-color:#004455;stop-opacity:0;"
         offset="1"
         id="stop4313" /></linearGradient><linearGradient
       inkscape:collect="always"
       id="linearGradient4301"><stop
         style="stop-color:#ff6600;stop-opacity:1;"
         offset="0"
         id="stop4303" /><stop
         style="stop-color:#ff6600;stop-opacity:0;"
         offset="1"
         id="stop4305" /></linearGradient><filter
       inkscape:collect="always"
       style="color-interpolation-filters:sRGB"
       id="filter4666"><feBlend
         inkscape:collect="always"
         mode="lighten"
         in2="BackgroundImage"
         id="feBlend4668" /></filter><filter
       inkscape:collect="always"
       style="color-interpolation-filters:sRGB"
       id="filter4666-1"><feBlend
         inkscape:collect="always"
         mode="lighten"
         in2="BackgroundImage"
         id="feBlend4668-5" /></filter><filter
       inkscape:collect="always"
       style="color-interpolation-filters:sRGB"
       id="filter4666-9"><feBlend
         inkscape:collect="always"
         mode="lighten"
         in2="BackgroundImage"
         id="feBlend4668-9" /></filter><linearGradient
       inkscape:collect="always"
       xlink:href="#linearGradient4301"
       id="linearGradient4307"
       x1="69.414665"
       y1="207.21272"
       x2="128.6263"
       y2="207.21272"
       gradientUnits="userSpaceOnUse" /><linearGradient
       inkscape:collect="always"
       xlink:href="#linearGradient4309"
       id="linearGradient4315"
       x1="204.85001"
       y1="159.00002"
       x2="255"
       y2="159.00002"
       gradientUnits="userSpaceOnUse" /></defs><sodipodi:namedview
     pagecolor="#ffffff"
     bordercolor="#666666"
     borderopacity="1"
     objecttolerance="10"
     gridtolerance="10"
     guidetolerance="10"
     inkscape:pageopacity="0"
     inkscape:pageshadow="2"
     inkscape:window-width="1918"
     inkscape:window-height="1180"
     id="namedview4192"
     showgrid="true"
     inkscape:zoom="4"
     inkscape:cx="135.32743"
     inkscape:cy="65.121105"
     inkscape:window-x="0"
     inkscape:window-y="18"
     inkscape:window-maximized="1"
     inkscape:current-layer="layer2"
     fit-margin-top="0"
     fit-margin-left="0"
     fit-margin-right="0"
     fit-margin-bottom="0"
     showguides="true"
     inkscape:guide-bbox="true"
     showborder="true"><inkscape:grid
       type="xygrid"
       id="grid4269"
       originx="6.6116796"
       originy="-36.034414" /><sodipodi:guide
       position="253.61168,20.965585"
       orientation="0,1"
       id="guide4503" /></sodipodi:namedview><g
     id="g4198"
     inkscape:groupmode="layer"
     inkscape:label="horizon"
     transform="matrix(1.25,0,0,-1.25,14.534213,203.41859)"
     style="display:inline;filter:url(#filter4666)"><path
       inkscape:connector-curvature="0"
       id="path4220"
       style="fill:none;stroke:#000000;stroke-width:0.27988079;stroke-linecap:butt;stroke-linejoin:round;stroke-miterlimit:10;stroke-dasharray:0.83964239, 0.83964239;stroke-dashoffset:0;stroke-opacity:1"
       d="m 209.836,151.801 0,-93.99983" /><text
       transform="scale(1,-1)"
       sodipodi:linespacing="125%"
       id="text4458"
       y="-48.428429"
       x="178.97792"
       style="font-style:normal;font-variant:normal;font-weight:normal;font-stretch:normal;font-size:9px;line-height:125%;font-family:sans-serif;-inkscape-font-specification:'sans-serif, Normal';text-align:start;letter-spacing:0px;word-spacing:0px;writing-mode:lr-tb;text-anchor:start;fill:#000000;fill-opacity:1;stroke:none;stroke-width:1px;stroke-linecap:butt;stroke-linejoin:miter;stroke-opacity:1"
       xml:space="preserve"><tspan
         y="-48.428429"
         x="178.97792"
         id="tspan4460"
         sodipodi:role="line"
         style="font-style:normal;font-variant:normal;font-weight:normal;font-stretch:normal;font-family:'Latin Modern Math';-inkscape-font-specification:'Latin Modern Math'">Horizont</tspan></text>
<text
       xml:space="preserve"
       style="font-style:normal;font-variant:normal;font-weight:normal;font-stretch:normal;font-size:9px;line-height:125%;font-family:sans-serif;-inkscape-font-specification:'sans-serif, Normal';text-align:start;letter-spacing:0px;word-spacing:0px;writing-mode:lr-tb;text-anchor:start;fill:#000000;fill-opacity:1;stroke:none;stroke-width:1px;stroke-linecap:butt;stroke-linejoin:miter;stroke-opacity:1"
       x="197.56563"
       y="-144.53262"
       id="text4243"
       sodipodi:linespacing="125%"
       transform="scale(1,-1)"><tspan
         style="font-style:normal;font-variant:normal;font-weight:normal;font-stretch:normal;font-family:'Latin Modern Math';-inkscape-font-specification:'Latin Modern Math'"
         sodipodi:role="line"
         id="tspan4245"
         x="197.56563"
         y="-144.53262">e</tspan></text>
<text
       transform="scale(1,-1)"
       sodipodi:linespacing="125%"
       id="text4247"
       y="-127.77419"
       x="197.70706"
       style="font-style:normal;font-variant:normal;font-weight:normal;font-stretch:normal;font-size:9px;line-height:125%;font-family:sans-serif;-inkscape-font-specification:'sans-serif, Normal';text-align:start;letter-spacing:0px;word-spacing:0px;writing-mode:lr-tb;text-anchor:start;fill:#000000;fill-opacity:1;stroke:none;stroke-width:1px;stroke-linecap:butt;stroke-linejoin:miter;stroke-opacity:1"
       xml:space="preserve"><tspan
         y="-127.77419"
         x="197.70706"
         id="tspan4249"
         sodipodi:role="line"
         style="font-style:normal;font-variant:normal;font-weight:normal;font-stretch:normal;font-family:'Latin Modern Math';-inkscape-font-specification:'Latin Modern Math'">f</tspan></text>
<text
       xml:space="preserve"
       style="font-style:normal;font-variant:normal;font-weight:normal;font-stretch:normal;font-size:9px;line-height:125%;font-family:sans-serif;-inkscape-font-specification:'sans-serif, Normal';text-align:start;letter-spacing:0px;word-spacing:0px;writing-mode:lr-tb;text-anchor:start;fill:#000000;fill-opacity:1;stroke:none;stroke-width:1px;stroke-linecap:butt;stroke-linejoin:miter;stroke-opacity:1"
       x="197.21208"
       y="-106.34885"
       id="text4251"
       sodipodi:linespacing="125%"
       transform="scale(1,-1)"><tspan
         style="font-style:normal;font-variant:normal;font-weight:normal;font-stretch:normal;font-family:'Latin Modern Math';-inkscape-font-specification:'Latin Modern Math'"
         sodipodi:role="line"
         id="tspan4253"
         x="197.21208"
         y="-106.34885">g</tspan></text>
<text
       transform="scale(1,-1)"
       sodipodi:linespacing="125%"
       id="text4255"
       y="-75.51899"
       x="196.92924"
       style="font-style:normal;font-variant:normal;font-weight:normal;font-stretch:normal;font-size:9px;line-height:125%;font-family:sans-serif;-inkscape-font-specification:'sans-serif, Normal';text-align:start;letter-spacing:0px;word-spacing:0px;writing-mode:lr-tb;text-anchor:start;fill:#000000;fill-opacity:1;stroke:none;stroke-width:1px;stroke-linecap:butt;stroke-linejoin:miter;stroke-opacity:1"
       xml:space="preserve"><tspan
         y="-75.51899"
         x="196.92924"
         id="tspan4257"
         sodipodi:role="line"
         style="font-style:normal;font-variant:normal;font-weight:normal;font-stretch:normal;font-family:'Latin Modern Math';-inkscape-font-specification:'Latin Modern Math'">h</tspan></text>
<text
       xml:space="preserve"
       style="font-style:normal;font-variant:normal;font-weight:normal;font-stretch:normal;font-size:9px;line-height:125%;font-family:sans-serif;-inkscape-font-specification:'sans-serif, Normal';text-align:start;letter-spacing:0px;word-spacing:0px;writing-mode:lr-tb;text-anchor:start;fill:#000000;fill-opacity:1;stroke:none;stroke-width:1px;stroke-linecap:butt;stroke-linejoin:miter;stroke-opacity:1"
       x="195.37791"
       y="-43.728428"
       id="text4925"
       sodipodi:linespacing="125%"
       transform="scale(1,-1)"><tspan
         style="font-style:normal;font-variant:normal;font-weight:normal;font-stretch:normal;font-size:6px;font-family:'Latin Modern Math';-inkscape-font-specification:'Latin Modern Math'"
         sodipodi:role="line"
         id="tspan4927"
         x="195.37791"
         y="-43.728428">d<tspan
   style="font-size:6px;baseline-shift:sub"
   id="tspan4929">max</tspan></tspan></text>
<text
       xml:space="preserve"
       style="font-style:normal;font-variant:normal;font-weight:normal;font-stretch:normal;font-size:9px;line-height:125%;font-family:sans-serif;-inkscape-font-specification:'sans-serif, Normal';text-align:start;letter-spacing:0px;word-spacing:0px;writing-mode:lr-tb;text-anchor:start;fill:#000000;fill-opacity:1;stroke:none;stroke-width:1px;stroke-linecap:butt;stroke-linejoin:miter;stroke-opacity:1"
       x="8.4237652"
       y="-48.569847"
       id="text4499"
       sodipodi:linespacing="125%"
       transform="scale(1,-1)"><tspan
         style="font-style:normal;font-variant:normal;font-weight:normal;font-stretch:normal;font-family:'Latin Modern Math';-inkscape-font-specification:'Latin Modern Math'"
         sodipodi:role="line"
         id="tspan4501"
         x="8.4237652"
         y="-48.569847">Betrachter</tspan></text>
</g><g
     inkscape:groupmode="layer"
     id="layer6"
     inkscape:label="rays"
     style="display:inline"
     transform="translate(12.741308,-72.341623)"><path
       transform="translate(-6.1296276,24.758959)"
       d="M 30.129641,160.10842 270.12977,70.10867"
       style="display:inline;fill:none;stroke:#000000;stroke-width:0.5;stroke-linecap:butt;stroke-linejoin:round;stroke-miterlimit:10;stroke-dasharray:none;stroke-opacity:1;filter:url(#filter4666-1);enable-background:new"
       id="path4212"
       inkscape:connector-curvature="0" /><path
       transform="translate(-6.1296276,24.758959)"
       d="M 30.129641,160.10842 270.12977,90.10867"
       style="display:inline;fill:none;stroke:#000000;stroke-width:0.5;stroke-linecap:butt;stroke-linejoin:round;stroke-miterlimit:10;stroke-dasharray:none;stroke-opacity:1;filter:url(#filter4666-1);enable-background:new"
       id="path4214"
       inkscape:connector-curvature="0" /><path
       transform="translate(-6.1296276,24.758959)"
       d="M 30.129641,160.10842 270.12977,120.10867"
       style="display:inline;fill:none;stroke:#000000;stroke-width:0.5;stroke-linecap:butt;stroke-linejoin:round;stroke-miterlimit:10;stroke-dasharray:none;stroke-opacity:1;filter:url(#filter4666-1);enable-background:new"
       id="path4216"
       inkscape:connector-curvature="0" /><path
       transform="translate(-6.1296276,24.758959)"
       d="m 30.129641,160.10842 240.000129,0"
       style="display:inline;fill:none;stroke:#000000;stroke-width:0.5;stroke-linecap:butt;stroke-linejoin:round;stroke-miterlimit:10;stroke-dasharray:none;stroke-opacity:1;filter:url(#filter4666-1);enable-background:new"
       id="path4218"
       inkscape:connector-curvature="0" /><path
       transform="translate(-6.1296276,24.758959)"
       style="display:inline;fill:none;fill-rule:evenodd;stroke:#000000;stroke-width:0.5;stroke-linecap:butt;stroke-linejoin:miter;stroke-miterlimit:4;stroke-dasharray:none;stroke-opacity:1;enable-background:new"
       d="m 30.078125,160.05792 240.135855,0"
       id="path5201"
       inkscape:connector-curvature="0" /></g><g
     inkscape:groupmode="layer"
     id="layer1"
     inkscape:label="polygons"
     style="display:inline"
     transform="translate(6.61168,-47.582664)"><rect
       style="color:#000000;clip-rule:nonzero;display:inline;overflow:visible;visibility:visible;opacity:1;isolation:auto;mix-blend-mode:normal;color-interpolation:sRGB;color-interpolation-filters:linearRGB;solid-color:#000000;solid-opacity:1;fill:url(#linearGradient4315);fill-opacity:1;fill-rule:evenodd;stroke:#000000;stroke-width:0.30000001;stroke-linecap:butt;stroke-linejoin:miter;stroke-miterlimit:4;stroke-dasharray:none;stroke-dashoffset:0;stroke-opacity:1;color-rendering:auto;image-rendering:auto;shape-rendering:auto;text-rendering:auto;enable-background:accumulate"
       id="rect4273"
       width="20"
       height="20"
       x="205"
       y="149.00002" /><rect
       y="186.88547"
       x="69.719574"
       height="40.654522"
       width="40.654522"
       id="rect4291"
       style="color:#000000;clip-rule:nonzero;display:inline;overflow:visible;visibility:visible;opacity:0.98000004;isolation:auto;mix-blend-mode:normal;color-interpolation:sRGB;color-interpolation-filters:linearRGB;solid-color:#000000;solid-opacity:1;fill:url(#linearGradient4307);fill-opacity:1;fill-rule:evenodd;stroke:#000000;stroke-width:0.60981786;stroke-linecap:butt;stroke-linejoin:miter;stroke-miterlimit:4;stroke-dasharray:none;stroke-dashoffset:0;stroke-opacity:1;color-rendering:auto;image-rendering:auto;shape-rendering:auto;text-rendering:auto;enable-background:accumulate"
       transform="matrix(0.8660254,-0.5,0.5,0.8660254,0,0)" /></g><g
     inkscape:groupmode="layer"
     id="layer4"
     inkscape:label="eye"
     style="display:inline"
     transform="translate(6.61168,-47.582664)"><circle
       id="path4271"
       style="fill:#000000;stroke:none"
       cx="30.828426"
       cy="159.89018"
       r="1.5" /></g><g
     inkscape:groupmode="layer"
     id="layer5"
     inkscape:label="ray_marching 1"
     style="display:inline"
     transform="translate(12.741308,-72.341623)"><path
       transform="translate(-6.1296276,24.758959)"
       d="m 55.655151,159.84558 c 0,-1.09863 -1.650375,-1.09863 -1.650375,0 0,1.104 1.650375,1.104 1.650375,0 z"
       style="display:inline;opacity:1;fill:#800000;fill-opacity:1;fill-rule:evenodd;stroke:none;filter:url(#filter4666);enable-background:new"
       id="path4228"
       inkscape:connector-curvature="0" /><path
       transform="translate(-6.1296276,24.758959)"
       d="m 75.508651,159.79183 c 0,-1.09863 -1.649875,-1.09863 -1.649875,0 0,1.09862 1.649875,1.09862 1.649875,0 z"
       style="display:inline;opacity:1;fill:#800000;fill-opacity:1;fill-rule:evenodd;stroke:none;filter:url(#filter4666);enable-background:new"
       id="path4230"
       inkscape:connector-curvature="0" /><path
       transform="translate(-6.1296276,24.758959)"
       d="m 65.572651,159.82558 c 0,-1.09875 -1.651375,-1.09875 -1.651375,0 0,1.09862 1.651375,1.09862 1.651375,0 z"
       style="display:inline;opacity:1;fill:#800000;fill-opacity:1;fill-rule:evenodd;stroke:none;filter:url(#filter4666);enable-background:new"
       id="path4232"
       inkscape:connector-curvature="0" /><path
       transform="translate(-6.1296276,24.758959)"
       d="m 85.528651,159.87433 c 0,-1.1025 -1.651375,-1.1025 -1.651375,0 0,1.09862 1.651375,1.09862 1.651375,0 z"
       style="display:inline;opacity:1;fill:#800000;fill-opacity:1;fill-rule:evenodd;stroke:none;filter:url(#filter4666);enable-background:new"
       id="path4234"
       inkscape:connector-curvature="0" /><path
       transform="translate(-6.1296276,24.758959)"
       d="m 95.552647,159.82558 c 0,-1.09875 -1.6505,-1.09875 -1.6505,0 0,1.09862 1.6505,1.09862 1.6505,0 z"
       style="display:inline;opacity:1;fill:#800000;fill-opacity:1;fill-rule:evenodd;stroke:none;filter:url(#filter4666);enable-background:new"
       id="path4236"
       inkscape:connector-curvature="0" /><path
       transform="translate(-6.1296276,24.758959)"
       d="m 105.53353,159.87433 c 0,-1.1025 -1.65138,-1.1025 -1.65138,0 0,1.09862 1.65138,1.09862 1.65138,0 z"
       style="display:inline;opacity:1;fill:#800000;fill-opacity:1;fill-rule:evenodd;stroke:none;filter:url(#filter4666);enable-background:new"
       id="path4238"
       inkscape:connector-curvature="0" /><path
       transform="translate(-6.1296276,24.758959)"
       d="m 115.46465,159.7332 c 0,-1.09912 -1.64987,-1.09912 -1.64987,0 0,1.09863 1.64987,1.09863 1.64987,0 z"
       style="display:inline;opacity:1;fill:#800000;fill-opacity:1;fill-rule:evenodd;stroke:none;filter:url(#filter4666);enable-background:new"
       id="path4240"
       inkscape:connector-curvature="0" /><path
       transform="translate(-6.1296276,24.758959)"
       d="m 125.63615,159.90408 c 0,-1.1035 -1.65137,-1.1035 -1.65137,0 0,1.09912 1.65137,1.09912 1.65137,0 z"
       style="display:inline;opacity:1;fill:#800000;fill-opacity:1;fill-rule:evenodd;stroke:none;filter:url(#filter4666);enable-background:new"
       id="path4242"
       inkscape:connector-curvature="0" /><path
       transform="translate(-6.1296276,24.758959)"
       d="m 135.50865,159.81183 c 0,-1.09863 -1.645,-1.09863 -1.645,0 0,1.09862 1.645,1.09862 1.645,0 z"
       style="display:inline;opacity:1;fill:#800000;fill-opacity:1;fill-rule:evenodd;stroke:none;filter:url(#filter4666);enable-background:new"
       id="path4244"
       inkscape:connector-curvature="0" /><path
       transform="translate(-6.1296276,24.758959)"
       d="m 145.53365,159.78208 c 0,-1.09913 -1.65125,-1.09913 -1.65125,0 0,1.09862 1.65125,1.09862 1.65125,0 z"
       style="display:inline;opacity:1;fill:#800000;fill-opacity:1;fill-rule:evenodd;stroke:none;filter:url(#filter4666);enable-background:new"
       id="path4246"
       inkscape:connector-curvature="0" /><path
       transform="translate(-6.1296276,24.758959)"
       d="m 155.53365,159.78208 c 0,-1.09913 -1.65125,-1.09913 -1.65125,0 0,1.09862 1.65125,1.09862 1.65125,0 z"
       style="display:inline;opacity:1;fill:#800000;fill-opacity:1;fill-rule:evenodd;stroke:none;filter:url(#filter4666);enable-background:new"
       id="path4248"
       inkscape:connector-curvature="0" /><path
       transform="translate(-6.1296276,24.758959)"
       d="m 165.49865,159.74783 c 0,-1.09863 -1.65,-1.09863 -1.65,0 0,1.09912 1.65,1.09912 1.65,0 z"
       style="display:inline;opacity:1;fill:#800000;fill-opacity:1;fill-rule:evenodd;stroke:none;filter:url(#filter4666);enable-background:new"
       id="path4250"
       inkscape:connector-curvature="0" /><path
       transform="translate(-6.1296276,24.758959)"
       d="m 185.5624,159.78208 c 0,-1.09913 -1.645,-1.09913 -1.645,0 0,1.09862 1.645,1.09862 1.645,0 z"
       style="display:inline;opacity:1;fill:#800000;fill-opacity:1;fill-rule:evenodd;stroke:none;filter:url(#filter4666);enable-background:new"
       id="path4252"
       inkscape:connector-curvature="0" /><path
       transform="translate(-6.1296276,24.758959)"
       d="m 195.52365,159.78208 c 0,-1.09913 -1.65125,-1.09913 -1.65125,0 0,1.09862 1.65125,1.09862 1.65125,0 z"
       style="display:inline;opacity:1;fill:#800000;fill-opacity:1;fill-rule:evenodd;stroke:none;filter:url(#filter4666);enable-background:new"
       id="path4254"
       inkscape:connector-curvature="0" /><path
       transform="translate(-6.1296276,24.758959)"
       d="m 55.887545,155.73044 c 0,-1.09913 -1.65,-1.09913 -1.65,0 0,1.09862 1.65,1.09862 1.65,0 z"
       style="display:inline;opacity:1;fill:#800000;fill-opacity:1;fill-rule:evenodd;stroke:none;filter:url(#filter4666);enable-background:new"
       id="path4272"
       inkscape:connector-curvature="0" /><path
       transform="translate(-6.1296276,24.758959)"
       d="m 65.853795,154.09019 c 0,-1.09863 -1.645,-1.09863 -1.645,0 0,1.09875 1.645,1.09875 1.645,0 z"
       style="display:inline;opacity:1;fill:#800000;fill-opacity:1;fill-rule:evenodd;stroke:none;filter:url(#filter4666);enable-background:new"
       id="path4274"
       inkscape:connector-curvature="0" /><path
       transform="translate(-6.1296276,24.758959)"
       d="m 75.93142,152.51744 c 0,-1.09863 -1.649875,-1.09863 -1.649875,0 0,1.09912 1.649875,1.09912 1.649875,0 z"
       style="display:inline;opacity:1;fill:#800000;fill-opacity:1;fill-rule:evenodd;stroke:none;filter:url(#filter4666);enable-background:new"
       id="path4276"
       inkscape:connector-curvature="0" /><path
       transform="translate(-6.1296276,24.758959)"
       d="m 85.882545,150.79381 c 0,-1.09862 -1.649875,-1.09862 -1.649875,0 0,1.104 1.649875,1.104 1.649875,0 z"
       style="display:inline;opacity:1;fill:#800000;fill-opacity:1;fill-rule:evenodd;stroke:none;filter:url(#filter4666);enable-background:new"
       id="path4278"
       inkscape:connector-curvature="0" /><path
       transform="translate(-6.1296276,24.758959)"
       d="m 95.825041,149.15769 c 0,-1.09875 -1.65137,-1.09875 -1.65137,0 0,1.104 1.65137,1.104 1.65137,0 z"
       style="display:inline;opacity:1;fill:#800000;fill-opacity:1;fill-rule:evenodd;stroke:none;filter:url(#filter4666);enable-background:new"
       id="path4280"
       inkscape:connector-curvature="0" /><path
       transform="translate(-6.1296276,24.758959)"
       d="m 105.84404,147.46919 c 0,-1.09913 -1.65037,-1.09913 -1.65037,0 0,1.1035 1.65037,1.1035 1.65037,0 z"
       style="display:inline;opacity:1;fill:#800000;fill-opacity:1;fill-rule:evenodd;stroke:none;filter:url(#filter4666);enable-background:new"
       id="path4282"
       inkscape:connector-curvature="0" /><path
       transform="translate(-6.1296276,24.758959)"
       d="m 115.85867,145.73044 c 0,-1.09913 -1.64988,-1.09913 -1.64988,0 0,1.1035 1.64988,1.1035 1.64988,0 z"
       style="display:inline;opacity:1;fill:#800000;fill-opacity:1;fill-rule:evenodd;stroke:none;filter:url(#filter4666);enable-background:new"
       id="path4284"
       inkscape:connector-curvature="0" /><path
       transform="translate(-6.1296276,24.758959)"
       d="m 125.86892,144.08531 c 0,-1.104 -1.65138,-1.104 -1.65138,0 0,1.09863 1.65138,1.09863 1.65138,0 z"
       style="display:inline;opacity:1;fill:#800000;fill-opacity:1;fill-rule:evenodd;stroke:none;filter:url(#filter4666);enable-background:new"
       id="path4286"
       inkscape:connector-curvature="0" /><path
       transform="translate(-6.1296276,24.758959)"
       d="m 135.86891,142.39544 c 0,-1.09913 -1.65137,-1.09913 -1.65137,0 0,1.09862 1.65137,1.09862 1.65137,0 z"
       style="display:inline;opacity:1;fill:#800000;fill-opacity:1;fill-rule:evenodd;stroke:none;filter:url(#filter4666);enable-background:new"
       id="path4288"
       inkscape:connector-curvature="0" /><path
       transform="translate(-6.1296276,24.758959)"
       d="m 145.86879,140.78406 c 0,-1.104 -1.65125,-1.104 -1.65125,0 0,1.09863 1.65125,1.09863 1.65125,0 z"
       style="display:inline;opacity:1;fill:#800000;fill-opacity:1;fill-rule:evenodd;stroke:none;filter:url(#filter4666);enable-background:new"
       id="path4290"
       inkscape:connector-curvature="0" /><path
       transform="translate(-6.1296276,24.758959)"
       d="m 155.89754,139.30628 c 0,-1.09912 -1.65,-1.09912 -1.65,0 0,1.09863 1.65,1.09863 1.65,0 z"
       style="display:inline;opacity:1;fill:#800000;fill-opacity:1;fill-rule:evenodd;stroke:none;filter:url(#filter4666);enable-background:new"
       id="path4292"
       inkscape:connector-curvature="0" /><path
       transform="translate(-6.1296276,24.758959)"
       d="m 55.89242,152.5667 c 0,-1.1025 -1.65,-1.1025 -1.65,0 0,1.09863 1.65,1.09863 1.65,0 z"
       style="display:inline;opacity:1;fill:#800000;fill-opacity:1;fill-rule:evenodd;stroke:none;filter:url(#filter4666);enable-background:new"
       id="path4294"
       inkscape:connector-curvature="0" /><path
       transform="translate(-6.1296276,24.758959)"
       d="m 65.853795,149.60283 c 0,-1.09863 -1.649875,-1.09863 -1.649875,0 0,1.09912 1.649875,1.09912 1.649875,0 z"
       style="display:inline;opacity:1;fill:#800000;fill-opacity:1;fill-rule:evenodd;stroke:none;filter:url(#filter4666);enable-background:new"
       id="path4296"
       inkscape:connector-curvature="0" /><path
       transform="translate(-6.1296276,24.758959)"
       d="m 75.86892,146.74208 c 0,-1.104 -1.651375,-1.104 -1.651375,0 0,1.09862 1.651375,1.09862 1.651375,0 z"
       style="display:inline;opacity:1;fill:#800000;fill-opacity:1;fill-rule:evenodd;stroke:none;filter:url(#filter4666);enable-background:new"
       id="path4298"
       inkscape:connector-curvature="0" /><path
       transform="translate(-6.1296276,24.758959)"
       d="m 85.86892,143.82695 c 0,-1.09912 -1.651375,-1.09912 -1.651375,0 0,1.1035 1.651375,1.1035 1.651375,0 z"
       style="display:inline;opacity:1;fill:#800000;fill-opacity:1;fill-rule:evenodd;stroke:none;filter:url(#filter4666);enable-background:new"
       id="path4300"
       inkscape:connector-curvature="0" /><path
       transform="translate(-6.1296276,24.758959)"
       d="m 95.868921,140.92658 c 0,-1.09863 -1.65138,-1.09863 -1.65138,0 0,1.104 1.65138,1.104 1.65138,0 z"
       style="display:inline;opacity:1;fill:#800000;fill-opacity:1;fill-rule:evenodd;stroke:none;filter:url(#filter4666);enable-background:new"
       id="path4302"
       inkscape:connector-curvature="0" /><path
       transform="translate(-6.1296276,24.758959)"
       d="m 105.85379,138.00183 c 0,-1.09863 -1.64987,-1.09863 -1.64987,0 0,1.104 1.64987,1.104 1.64987,0 z"
       style="display:inline;opacity:1;fill:#800000;fill-opacity:1;fill-rule:evenodd;stroke:none;filter:url(#filter4666);enable-background:new"
       id="path4304"
       inkscape:connector-curvature="0" /><path
       transform="translate(-6.1296276,24.758959)"
       d="m 115.86892,135.01308 c 0,-1.09875 -1.65138,-1.09875 -1.65138,0 0,1.104 1.65138,1.104 1.65138,0 z"
       style="display:inline;opacity:1;fill:#800000;fill-opacity:1;fill-rule:evenodd;stroke:none;filter:url(#filter4666);enable-background:new"
       id="path4306"
       inkscape:connector-curvature="0" /><path
       transform="translate(-6.1296276,24.758959)"
       d="m 125.85379,132.16683 c 0,-1.09863 -1.64987,-1.09863 -1.64987,0 0,1.09862 1.64987,1.09862 1.64987,0 z"
       style="display:inline;opacity:1;fill:#800000;fill-opacity:1;fill-rule:evenodd;stroke:none;filter:url(#filter4666);enable-background:new"
       id="path4308"
       inkscape:connector-curvature="0" /><path
       transform="translate(-6.1296276,24.758959)"
       d="m 135.86891,129.22295 c 0,-1.09862 -1.65137,-1.09862 -1.65137,0 0,1.09763 1.65137,1.09763 1.65137,0 z"
       style="display:inline;opacity:1;fill:#800000;fill-opacity:1;fill-rule:evenodd;stroke:none;filter:url(#filter4666);enable-background:new"
       id="path4310"
       inkscape:connector-curvature="0" /><path
       transform="translate(-6.1296276,24.758959)"
       d="m 145.88254,126.24933 c 0,-1.09863 -1.65,-1.09863 -1.65,0 0,1.09862 1.65,1.09862 1.65,0 z"
       style="display:inline;opacity:1;fill:#800000;fill-opacity:1;fill-rule:evenodd;stroke:none;filter:url(#filter4666);enable-background:new"
       id="path4312"
       inkscape:connector-curvature="0" /><path
       transform="translate(-6.1296276,24.758959)"
       d="m 155.86879,123.45058 c 0,-1.09875 -1.65125,-1.09875 -1.65125,0 0,1.09862 1.65125,1.09862 1.65125,0 z"
       style="display:inline;opacity:1;fill:#800000;fill-opacity:1;fill-rule:evenodd;stroke:none;filter:url(#filter4666);enable-background:new"
       id="path4314"
       inkscape:connector-curvature="0" /><path
       transform="translate(-6.1296276,24.758959)"
       d="m 55.897795,150.88808 c 0,-1.10363 -1.6505,-1.10363 -1.6505,0 0,1.09762 1.6505,1.09762 1.6505,0 z"
       style="display:inline;opacity:1;fill:#800000;fill-opacity:1;fill-rule:evenodd;stroke:none;filter:url(#filter4666);enable-background:new"
       id="path4318"
       inkscape:connector-curvature="0" /><path
       transform="translate(-6.1296276,24.758959)"
       d="m 65.887545,147.14195 c 0,-1.09762 -1.65,-1.09762 -1.65,0 0,1.1035 1.65,1.1035 1.65,0 z"
       style="display:inline;opacity:1;fill:#800000;fill-opacity:1;fill-rule:evenodd;stroke:none;filter:url(#filter4666);enable-background:new"
       id="path4320"
       inkscape:connector-curvature="0" /><path
       transform="translate(-6.1296276,24.758959)"
       d="m 75.844045,143.37283 c 0,-1.09863 -1.650375,-1.09863 -1.650375,0 0,1.09912 1.650375,1.09912 1.650375,0 z"
       style="display:inline;opacity:1;fill:#800000;fill-opacity:1;fill-rule:evenodd;stroke:none;filter:url(#filter4666);enable-background:new"
       id="path4322"
       inkscape:connector-curvature="0" /><path
       transform="translate(-6.1296276,24.758959)"
       d="m 85.882545,139.62283 c 0,-1.09863 -1.649875,-1.09863 -1.649875,0 0,1.09912 1.649875,1.09912 1.649875,0 z"
       style="display:inline;opacity:1;fill:#800000;fill-opacity:1;fill-rule:evenodd;stroke:none;filter:url(#filter4666);enable-background:new"
       id="path4324"
       inkscape:connector-curvature="0" /><path
       transform="translate(-6.1296276,24.758959)"
       d="m 95.863541,135.93195 c 0,-1.09912 -1.64987,-1.09912 -1.64987,0 0,1.1035 1.64987,1.1035 1.64987,0 z"
       style="display:inline;opacity:1;fill:#800000;fill-opacity:1;fill-rule:evenodd;stroke:none;filter:url(#filter4666);enable-background:new"
       id="path4326"
       inkscape:connector-curvature="0" /><path
       transform="translate(-6.1296276,24.758959)"
       d="m 115.83867,128.43195 c 0,-1.09912 -1.64988,-1.09912 -1.64988,0 0,1.09863 1.64988,1.09863 1.64988,0 z"
       style="display:inline;opacity:1;fill:#800000;fill-opacity:1;fill-rule:evenodd;stroke:none;filter:url(#filter4666);enable-background:new"
       id="path4328"
       inkscape:connector-curvature="0" /><path
       transform="translate(-6.1296276,24.758959)"
       d="m 105.85867,132.16195 c 0,-1.09862 -1.64988,-1.09862 -1.64988,0 0,1.09863 1.64988,1.09863 1.64988,0 z"
       style="display:inline;opacity:1;fill:#800000;fill-opacity:1;fill-rule:evenodd;stroke:none;filter:url(#filter4666);enable-background:new"
       id="path4330"
       inkscape:connector-curvature="0" /><path
       transform="translate(-6.1296276,24.758959)"
       d="m 125.91242,124.68683 c 0,-1.09875 -1.64988,-1.09875 -1.64988,0 0,1.09862 1.64988,1.09862 1.64988,0 z"
       style="display:inline;opacity:1;fill:#800000;fill-opacity:1;fill-rule:evenodd;stroke:none;filter:url(#filter4666);enable-background:new"
       id="path4332"
       inkscape:connector-curvature="0" /><path
       transform="translate(-6.1296276,24.758959)"
       d="m 135.88254,120.89683 c 0,-1.1025 -1.64988,-1.1025 -1.64988,0 0,1.09875 1.64988,1.09875 1.64988,0 z"
       style="display:inline;opacity:1;fill:#800000;fill-opacity:1;fill-rule:evenodd;stroke:none;filter:url(#filter4666);enable-background:new"
       id="path4334"
       inkscape:connector-curvature="0" /><path
       transform="translate(-6.1296276,24.758959)"
       d="m 155.96129,113.46558 c 0,-1.09875 -1.65,-1.09875 -1.65,0 0,1.10375 1.65,1.10375 1.65,0 z"
       style="display:inline;opacity:1;fill:#800000;fill-opacity:1;fill-rule:evenodd;stroke:none;filter:url(#filter4666);enable-background:new"
       id="path4336"
       inkscape:connector-curvature="0" /><path
       transform="translate(-6.1296276,24.758959)"
       d="m 165.92254,109.70058 c 0,-1.09875 -1.65125,-1.09875 -1.65125,0 0,1.09875 1.65125,1.09875 1.65125,0 z"
       style="display:inline;opacity:1;fill:#800000;fill-opacity:1;fill-rule:evenodd;stroke:none;filter:url(#filter4666);enable-background:new"
       id="path4338"
       inkscape:connector-curvature="0" /><path
       transform="translate(-6.1296276,24.758959)"
       d="m 175.88254,106.09308 c 0,-1.09875 -1.65,-1.09875 -1.65,0 0,1.09875 1.65,1.09875 1.65,0 z"
       style="display:inline;opacity:1;fill:#800000;fill-opacity:1;fill-rule:evenodd;stroke:none;filter:url(#filter4666);enable-background:new"
       id="path4340"
       inkscape:connector-curvature="0" /><path
       transform="translate(-6.1296276,24.758959)"
       d="m 185.83879,102.24933 c 0,-1.0975 -1.65,-1.0975 -1.65,0 0,1.10375 1.65,1.10375 1.65,0 z"
       style="display:inline;opacity:1;fill:#800000;fill-opacity:1;fill-rule:evenodd;stroke:none;filter:url(#filter4666);enable-background:new"
       id="path4342"
       inkscape:connector-curvature="0" /><path
       transform="translate(-6.1296276,24.758959)"
       d="m 195.86379,98.445565 c 0,-1.097499 -1.65,-1.097499 -1.65,0 0,1.098761 1.65,1.098761 1.65,0 z"
       style="display:inline;opacity:1;fill:#800000;fill-opacity:1;fill-rule:evenodd;stroke:none;filter:url(#filter4666);enable-background:new"
       id="path4344"
       inkscape:connector-curvature="0" /><path
       transform="translate(-6.1296276,24.758959)"
       d="m 205.93129,94.735566 c 0,-1.10375 -1.65,-1.10375 -1.65,0 0,1.09875 1.65,1.09875 1.65,0 z"
       style="display:inline;opacity:1;fill:#800000;fill-opacity:1;fill-rule:evenodd;stroke:none;filter:url(#filter4666);enable-background:new"
       id="path4346"
       inkscape:connector-curvature="0" /><path
       transform="translate(-6.1296276,24.758959)"
       d="m 215.92254,90.883066 c 0,-1.09875 -1.65125,-1.09875 -1.65125,0 0,1.09875 1.65125,1.09875 1.65125,0 z"
       style="display:inline;opacity:1;fill:#800000;fill-opacity:1;fill-rule:evenodd;stroke:none;filter:url(#filter4666);enable-background:new"
       id="path4348"
       inkscape:connector-curvature="0" /><path
       transform="translate(-6.1296276,24.758959)"
       d="m 225.87879,87.151816 c 0,-1.09875 -1.65125,-1.09875 -1.65125,0 0,1.09875 1.65125,1.09875 1.65125,0 z"
       style="display:inline;opacity:1;fill:#800000;fill-opacity:1;fill-rule:evenodd;stroke:none;filter:url(#filter4666);enable-background:new"
       id="path4350"
       inkscape:connector-curvature="0" /><path
       transform="translate(-6.1296276,24.758959)"
       d="m 235.85879,83.396816 c 0,-1.09875 -1.65,-1.09875 -1.65,0 0,1.09875 1.65,1.09875 1.65,0 z"
       style="display:inline;opacity:1;fill:#800000;fill-opacity:1;fill-rule:evenodd;stroke:none;filter:url(#filter4666);enable-background:new"
       id="path4352"
       inkscape:connector-curvature="0" /><path
       transform="translate(-6.1296276,24.758959)"
       d="m 245.87379,79.749316 c 0,-1.0975 -1.65125,-1.0975 -1.65125,0 0,1.09875 1.65125,1.09875 1.65125,0 z"
       style="display:inline;opacity:1;fill:#800000;fill-opacity:1;fill-rule:evenodd;stroke:none;filter:url(#filter4666);enable-background:new"
       id="path4354"
       inkscape:connector-curvature="0" /><path
       transform="translate(-6.1296276,24.758959)"
       d="m 255.85379,76.039316 c 0,-1.09875 -1.65,-1.09875 -1.65,0 0,1.09875 1.65,1.09875 1.65,0 z"
       style="display:inline;opacity:1;fill:#800000;fill-opacity:1;fill-rule:evenodd;stroke:none;filter:url(#filter4666);enable-background:new"
       id="path4356"
       inkscape:connector-curvature="0" /><path
       transform="translate(-6.1296276,24.758959)"
       d="m 265.87879,72.279316 c 0,-1.09875 -1.65125,-1.09875 -1.65125,0 0,1.09875 1.65125,1.09875 1.65125,0 z"
       style="display:inline;opacity:1;fill:#800000;fill-opacity:1;fill-rule:evenodd;stroke:none;filter:url(#filter4666);enable-background:new"
       id="path4358"
       inkscape:connector-curvature="0" /><path
       transform="translate(-6.1296276,24.758959)"
       d="m 145.84379,117.02058 c 0,-1.09875 -1.65,-1.09875 -1.65,0 0,1.09875 1.65,1.09875 1.65,0 z"
       style="display:inline;opacity:1;fill:#800000;fill-opacity:1;fill-rule:evenodd;stroke:none;filter:url(#filter4666);enable-background:new"
       id="path4362"
       inkscape:connector-curvature="0" /><text
       transform="translate(-6.1296276,24.758959)"
       xml:space="preserve"
       style="font-style:normal;font-variant:normal;font-weight:normal;font-stretch:normal;font-size:8.1132803px;line-height:125%;font-family:sans-serif;-inkscape-font-specification:'sans-serif, Normal';text-align:start;letter-spacing:0px;word-spacing:0px;writing-mode:lr-tb;text-anchor:start;display:inline;opacity:1;fill:#800000;fill-opacity:1;stroke:none;stroke-width:1px;stroke-linecap:butt;stroke-linejoin:miter;stroke-opacity:1;filter:url(#filter4666);enable-background:new"
       x="202.32195"
       y="161.98251"
       id="text4486"
       sodipodi:linespacing="125%"><tspan
         sodipodi:role="line"
         id="tspan4488"
         x="202.32195"
         y="161.98251"
         style="fill:#800000;fill-opacity:1">x</tspan></text>
<text
       transform="translate(-6.1296276,24.758959)"
       xml:space="preserve"
       style="font-style:normal;font-variant:normal;font-weight:normal;font-stretch:normal;font-size:8.1132803px;line-height:125%;font-family:sans-serif;-inkscape-font-specification:'sans-serif, Normal';text-align:start;letter-spacing:0px;word-spacing:0px;writing-mode:lr-tb;text-anchor:start;display:inline;opacity:1;fill:#800000;fill-opacity:1;stroke:none;stroke-width:1px;stroke-linecap:butt;stroke-linejoin:miter;stroke-opacity:1;filter:url(#filter4666-9);enable-background:new"
       x="162.58765"
       y="123.01299"
       id="text4486-2"
       sodipodi:linespacing="125%"><tspan
         sodipodi:role="line"
         id="tspan4488-5"
         x="162.58765"
         y="123.01299"
         style="fill:#800000;fill-opacity:1">x</tspan></text>
<path
       transform="translate(-6.1296276,24.758959)"
       inkscape:connector-curvature="0"
       id="path4237"
       style="display:inline;opacity:1;fill:#800000;fill-opacity:1;fill-rule:evenodd;stroke:none;filter:url(#filter4666);enable-background:new"
       d="m 165.70865,137.6269 c 0,-1.09912 -1.65,-1.09912 -1.65,0 0,1.09863 1.65,1.09863 1.65,0 z" /><path
       transform="translate(-6.1296276,24.758959)"
       inkscape:connector-curvature="0"
       id="path4239"
       style="display:inline;opacity:1;fill:#800000;fill-opacity:1;fill-rule:evenodd;stroke:none;filter:url(#filter4666);enable-background:new"
       d="m 175.5374,160.05915 c 0,-1.09875 -1.65,-1.09875 -1.65,0 0,1.09875 1.65,1.09875 1.65,0 z" /><path
       transform="translate(-6.1296276,24.758959)"
       d="m 175.87331,136.01447 c 0,-1.09912 -1.65,-1.09912 -1.65,0 0,1.09863 1.65,1.09863 1.65,0 z"
       style="display:inline;opacity:1;fill:#800000;fill-opacity:1;fill-rule:evenodd;stroke:none;filter:url(#filter4666);enable-background:new"
       id="path4947"
       inkscape:connector-curvature="0" /><path
       inkscape:connector-curvature="0"
       id="path4950"
       style="display:inline;opacity:1;fill:#800000;fill-opacity:1;fill-rule:evenodd;stroke:none;filter:url(#filter4666);enable-background:new"
       d="m 179.64291,159.06524 c 0,-1.09912 -1.65,-1.09912 -1.65,0 0,1.09863 1.65,1.09863 1.65,0 z" /><path
       d="m 189.45402,157.38586 c 0,-1.09912 -1.65,-1.09912 -1.65,0 0,1.09863 1.65,1.09863 1.65,0 z"
       style="display:inline;opacity:1;fill:#800000;fill-opacity:1;fill-rule:evenodd;stroke:none;filter:url(#filter4666);enable-background:new"
       id="path4952"
       inkscape:connector-curvature="0" /><path
       inkscape:connector-curvature="0"
       id="path4954"
       style="display:inline;opacity:1;fill:#800000;fill-opacity:1;fill-rule:evenodd;stroke:none;filter:url(#filter4666);enable-background:new"
       d="m 199.61868,155.77343 c 0,-1.09912 -1.65,-1.09912 -1.65,0 0,1.09863 1.65,1.09863 1.65,0 z" /><path
       d="m 209.89291,153.94024 c 0,-1.09912 -1.65,-1.09912 -1.65,0 0,1.09863 1.65,1.09863 1.65,0 z"
       style="display:inline;opacity:1;fill:#800000;fill-opacity:1;fill-rule:evenodd;stroke:none;filter:url(#filter4666);enable-background:new"
       id="path4956"
       inkscape:connector-curvature="0" /><path
       inkscape:connector-curvature="0"
       id="path4958"
       style="display:inline;opacity:1;fill:#800000;fill-opacity:1;fill-rule:evenodd;stroke:none;filter:url(#filter4666);enable-background:new"
       d="m 219.70402,152.26086 c 0,-1.09912 -1.65,-1.09912 -1.65,0 0,1.09863 1.65,1.09863 1.65,0 z" /><path
       d="m 229.86868,150.64843 c 0,-1.09912 -1.65,-1.09912 -1.65,0 0,1.09863 1.65,1.09863 1.65,0 z"
       style="display:inline;opacity:1;fill:#800000;fill-opacity:1;fill-rule:evenodd;stroke:none;filter:url(#filter4666);enable-background:new"
       id="path4960"
       inkscape:connector-curvature="0" /><path
       inkscape:connector-curvature="0"
       id="path4962"
       style="display:inline;opacity:1;fill:#800000;fill-opacity:1;fill-rule:evenodd;stroke:none;filter:url(#filter4666);enable-background:new"
       d="m 239.76791,148.94024 c 0,-1.09912 -1.65,-1.09912 -1.65,0 0,1.09863 1.65,1.09863 1.65,0 z" /><path
       d="m 249.57902,147.26086 c 0,-1.09912 -1.65,-1.09912 -1.65,0 0,1.09863 1.65,1.09863 1.65,0 z"
       style="display:inline;opacity:1;fill:#800000;fill-opacity:1;fill-rule:evenodd;stroke:none;filter:url(#filter4666);enable-background:new"
       id="path4964"
       inkscape:connector-curvature="0" /><path
       inkscape:connector-curvature="0"
       id="path4966"
       style="display:inline;opacity:1;fill:#800000;fill-opacity:1;fill-rule:evenodd;stroke:none;filter:url(#filter4666);enable-background:new"
       d="m 259.74368,145.64843 c 0,-1.09912 -1.65,-1.09912 -1.65,0 0,1.09863 1.65,1.09863 1.65,0 z" /></g><g
     inkscape:groupmode="layer"
     id="layer2"
     inkscape:label="texts"
     transform="translate(12.741308,-72.341623)"><text
       xml:space="preserve"
       style="font-style:normal;font-variant:normal;font-weight:normal;font-stretch:normal;font-size:9px;line-height:125%;font-family:sans-serif;-inkscape-font-specification:'sans-serif, Normal';text-align:start;letter-spacing:0px;word-spacing:0px;writing-mode:lr-tb;text-anchor:start;display:inline;fill:#000000;fill-opacity:1;stroke:none;stroke-width:1px;stroke-linecap:butt;stroke-linejoin:miter;stroke-opacity:1;filter:url(#filter4666);enable-background:new"
       x="125.44074"
       y="-85.984177"
       id="text4811"
       sodipodi:linespacing="125%"
       transform="matrix(1.25,0,0,1.25,10.013021,278.1467)"><tspan
         style="font-style:normal;font-variant:normal;font-weight:normal;font-stretch:normal;font-size:6px;font-family:'Latin Modern Math';-inkscape-font-specification:'Latin Modern Math'"
         sodipodi:role="line"
         id="tspan4813"
         x="125.44074"
         y="-85.984177">poly1</tspan></text>
<text
       transform="matrix(1.25,0,0,1.25,43.77737,299.00635)"
       sodipodi:linespacing="125%"
       id="text4818"
       y="-85.984177"
       x="125.44074"
       style="font-style:normal;font-variant:normal;font-weight:normal;font-stretch:normal;font-size:9px;line-height:125%;font-family:sans-serif;-inkscape-font-specification:'sans-serif, Normal';text-align:start;letter-spacing:0px;word-spacing:0px;writing-mode:lr-tb;text-anchor:start;display:inline;fill:#ffffff;fill-opacity:1;stroke:none;stroke-width:1px;stroke-linecap:butt;stroke-linejoin:miter;stroke-opacity:1;filter:url(#filter4666);enable-background:new;"
       xml:space="preserve"><tspan
         y="-85.984177"
         x="125.44074"
         id="tspan4820"
         sodipodi:role="line"
         style="font-style:normal;font-variant:normal;font-weight:normal;font-stretch:normal;font-size:6px;font-family:'Latin Modern Math';-inkscape-font-specification:'Latin Modern Math';fill:#ffffff;">poly2</tspan></text>
</g></svg>