<?xml version="1.0" encoding="UTF-8" standalone="no"?>
<!-- Created with Inkscape (http://www.inkscape.org/) -->

<svg
   xmlns:dc="http://purl.org/dc/elements/1.1/"
   xmlns:cc="http://creativecommons.org/ns#"
   xmlns:rdf="http://www.w3.org/1999/02/22-rdf-syntax-ns#"
   xmlns:svg="http://www.w3.org/2000/svg"
   xmlns="http://www.w3.org/2000/svg"
   xmlns:xlink="http://www.w3.org/1999/xlink"
   xmlns:sodipodi="http://sodipodi.sourceforge.net/DTD/sodipodi-0.dtd"
   xmlns:inkscape="http://www.inkscape.org/namespaces/inkscape"
   id="svg4190"
   version="1.1"
   inkscape:version="0.91 r13725"
   xml:space="preserve"
   width="276.07559"
   height="247.62502"
   viewBox="0 0 276.07559 247.62502"
   sodipodi:docname="ray_marching_problems.svg"
   inkscape:export-filename="/Users/so/projects/mte7101-proj1/doc/img/ray_marching_problems.png"
   inkscape:export-xdpi="299.84854"
   inkscape:export-ydpi="299.84854"
   enable-background="new"><metadata
     id="metadata4196"><rdf:RDF><cc:Work
         rdf:about=""><dc:format>image/svg+xml</dc:format><dc:type
           rdf:resource="http://purl.org/dc/dcmitype/StillImage" /><dc:title /></cc:Work></rdf:RDF></metadata><defs
     id="defs4194"><filter
       inkscape:collect="always"
       style="color-interpolation-filters:sRGB"
       id="filter4666"><feBlend
         inkscape:collect="always"
         mode="lighten"
         in2="BackgroundImage"
         id="feBlend4668" /></filter><linearGradient
       gradientTransform="matrix(0.125,0,0,-0.125,13.32929,248.18147)"
       inkscape:collect="always"
       xlink:href="#linearGradient4442"
       id="linearGradient4448"
       x1="1488.2767"
       y1="728.01202"
       x2="1762.5853"
       y2="728.01202"
       gradientUnits="userSpaceOnUse" /><linearGradient
       inkscape:collect="always"
       id="linearGradient4442"><stop
         style="stop-color:#003380;stop-opacity:1"
         offset="0"
         id="stop4444" /><stop
         style="stop-color:#ffffff;stop-opacity:1"
         offset="1"
         id="stop4446" /></linearGradient><filter
       inkscape:collect="always"
       style="color-interpolation-filters:sRGB"
       id="filter4666-1"><feBlend
         inkscape:collect="always"
         mode="lighten"
         in2="BackgroundImage"
         id="feBlend4668-5" /></filter><filter
       inkscape:collect="always"
       style="color-interpolation-filters:sRGB"
       id="filter4666-3"><feBlend
         inkscape:collect="always"
         mode="lighten"
         in2="BackgroundImage"
         id="feBlend4668-2" /></filter><linearGradient
       inkscape:collect="always"
       xlink:href="#linearGradient4380"
       id="linearGradient4386"
       x1="1072.11"
       y1="887.9895"
       x2="1316.7455"
       y2="643.354"
       gradientUnits="userSpaceOnUse" /><linearGradient
       inkscape:collect="always"
       id="linearGradient4380"><stop
         style="stop-color:#ffb380;stop-opacity:1"
         offset="0"
         id="stop4382" /><stop
         style="stop-color:#ffffff;stop-opacity:1"
         offset="1"
         id="stop4384" /></linearGradient><filter
       inkscape:collect="always"
       style="color-interpolation-filters:sRGB"
       id="filter4666-9"><feBlend
         inkscape:collect="always"
         mode="lighten"
         in2="BackgroundImage"
         id="feBlend4668-9" /></filter><linearGradient
       inkscape:collect="always"
       xlink:href="#linearGradient4380"
       id="linearGradient4260"
       x1="206.04466"
       y1="-30.027668"
       x2="241.89999"
       y2="-30.027668"
       gradientUnits="userSpaceOnUse"
       gradientTransform="translate(-14.075927,-40.704983)" /></defs><sodipodi:namedview
     pagecolor="#ffffff"
     bordercolor="#666666"
     borderopacity="1"
     objecttolerance="10"
     gridtolerance="10"
     guidetolerance="10"
     inkscape:pageopacity="0"
     inkscape:pageshadow="2"
     inkscape:window-width="1920"
     inkscape:window-height="1151"
     id="namedview4192"
     showgrid="false"
     inkscape:zoom="8.0000004"
     inkscape:cx="150.9784"
     inkscape:cy="88.897061"
     inkscape:window-x="1920"
     inkscape:window-y="1"
     inkscape:window-maximized="0"
     inkscape:current-layer="layer3"
     fit-margin-top="0"
     fit-margin-left="0"
     fit-margin-right="0"
     fit-margin-bottom="0"
     showguides="true"
     inkscape:guide-bbox="true"><sodipodi:guide
       position="164.93266,130.63798"
       orientation="1,0"
       id="guide4234" /><sodipodi:guide
       position="175.00892,131.25669"
       orientation="1,0"
       id="guide4943" /></sodipodi:namedview><g
     id="g4198"
     inkscape:groupmode="layer"
     inkscape:label="horizon"
     transform="matrix(1.25,0,0,-1.25,7.9225327,251.00125)"
     style="display:inline;filter:url(#filter4666)"><path
       inkscape:connector-curvature="0"
       id="path4220"
       style="fill:none;stroke:#000000;stroke-width:0.40000001;stroke-linecap:butt;stroke-linejoin:round;stroke-miterlimit:10;stroke-dasharray:1.2, 1.2;stroke-dashoffset:0;stroke-opacity:1"
       d="m 209.836,200.801 0,-191.99983" /><text
       transform="scale(1,-1)"
       sodipodi:linespacing="125%"
       id="text4458"
       y="-2.8284268"
       x="180.87791"
       style="font-style:normal;font-variant:normal;font-weight:normal;font-stretch:normal;font-size:9px;line-height:125%;font-family:sans-serif;-inkscape-font-specification:'sans-serif, Normal';text-align:start;letter-spacing:0px;word-spacing:0px;writing-mode:lr-tb;text-anchor:start;fill:#000000;fill-opacity:1;stroke:none;stroke-width:1px;stroke-linecap:butt;stroke-linejoin:miter;stroke-opacity:1"
       xml:space="preserve"><tspan
         y="-2.8284268"
         x="180.87791"
         id="tspan4460"
         sodipodi:role="line">Horizon</tspan></text>
</g><g
     inkscape:groupmode="layer"
     id="layer5"
     inkscape:label="polys"
     style="display:none;opacity:1"><path
       d="m 205.62429,167.17997 20,0 0,-20 -20,0 0,20 z"
       style="display:inline;fill:url(#linearGradient4448);fill-opacity:1;stroke:#000000;stroke-width:0.5;stroke-linecap:butt;stroke-linejoin:round;stroke-miterlimit:10;stroke-dasharray:none;stroke-opacity:1;filter:url(#filter4666)"
       id="path4208"
       inkscape:connector-curvature="0" /><path
       d="M 1298.36,1114.26 1072.11,888.012 1298.36,661.719 1524.65,888.012 1298.36,1114.26 Z"
       style="display:inline;fill:url(#linearGradient4386);fill-opacity:1;fill-rule:evenodd;stroke:none;filter:url(#filter4666-3)"
       id="path4202"
       inkscape:connector-curvature="0"
       transform="matrix(0.125,0,0,-0.125,13.32929,248.18147)" /><path
       d="M 1298.36,1114.26 1072.11,888.012 1298.36,661.719 1524.65,888.012 1298.36,1114.26 Z"
       style="display:inline;fill:none;stroke:#000000;stroke-width:4;stroke-linecap:butt;stroke-linejoin:round;stroke-miterlimit:10;stroke-dasharray:none;stroke-opacity:1;filter:url(#filter4666-3)"
       id="path4204"
       inkscape:connector-curvature="0"
       transform="matrix(0.125,0,0,-0.125,13.32929,248.18147)" /></g><g
     inkscape:groupmode="layer"
     id="layer1"
     inkscape:label="polyz"
     style="display:none"><rect
       style="opacity:1;fill:url(#linearGradient4260);fill-opacity:1;stroke:#000000;stroke-width:0.5;stroke-miterlimit:4;stroke-dasharray:none;stroke-dashoffset:0;stroke-opacity:1"
       id="rect4244"
       width="35.355339"
       height="35.355339"
       x="192.21873"
       y="-88.410324"
       transform="matrix(0.55822226,0.82969146,-0.82969146,0.55822226,0,0)" /></g><g
     inkscape:groupmode="layer"
     id="layer7"
     inkscape:label="rayz"
     style="display:inline"><path
       d="M 30.129641,160.10842 270.12977,70.10867"
       style="display:inline;fill:none;stroke:#000000;stroke-width:0.5;stroke-linecap:butt;stroke-linejoin:round;stroke-miterlimit:10;stroke-dasharray:none;stroke-opacity:1;filter:url(#filter4666-1)"
       id="path4212"
       inkscape:connector-curvature="0" /><path
       d="M 30.129641,160.10842 270.12977,90.10867"
       style="display:inline;fill:none;stroke:#000000;stroke-width:0.5;stroke-linecap:butt;stroke-linejoin:round;stroke-miterlimit:10;stroke-dasharray:none;stroke-opacity:1;filter:url(#filter4666-1)"
       id="path4214"
       inkscape:connector-curvature="0" /><path
       d="M 30.129641,160.10842 270.12977,120.10867"
       style="display:inline;fill:none;stroke:#000000;stroke-width:0.5;stroke-linecap:butt;stroke-linejoin:round;stroke-miterlimit:10;stroke-dasharray:none;stroke-opacity:1;filter:url(#filter4666-1)"
       id="path4216"
       inkscape:connector-curvature="0" /><path
       d="m 30.129641,160.10842 240.000129,0"
       style="display:inline;fill:none;stroke:#000000;stroke-width:0.5;stroke-linecap:butt;stroke-linejoin:round;stroke-miterlimit:10;stroke-dasharray:none;stroke-opacity:1;filter:url(#filter4666-1)"
       id="path4218"
       inkscape:connector-curvature="0" /><path
       style="display:inline;fill:none;fill-rule:evenodd;stroke:#000000;stroke-width:0.5;stroke-linecap:butt;stroke-linejoin:miter;stroke-miterlimit:4;stroke-dasharray:none;stroke-opacity:1"
       d="m 40.234375,158.68292 229.882805,0"
       id="path5201"
       inkscape:connector-curvature="0" /></g><g
     inkscape:groupmode="layer"
     id="layer4"
     inkscape:label="eye"
     style="display:inline"><path
       style="display:inline;fill:none;fill-rule:evenodd;stroke:#000000;stroke-width:1px;stroke-linecap:butt;stroke-linejoin:miter;stroke-opacity:1;filter:url(#filter4666)"
       d="m 5.8499999,162.87377 c 6.6250001,0.125 18.2879721,-8.9618 33.1250001,-12.5 15.666032,0.69237 19.682102,0.75952 25.375,12.125 -1.5,1 -7.25,10.5 -26.25,10.375 -14.125,-0.75 -23.75,-6.875 -32.2500001,-10 z"
       id="path4474"
       inkscape:connector-curvature="0"
       sodipodi:nodetypes="ccccc" /><circle
       style="display:inline;fill:#000000;fill-opacity:1;stroke:#000000;stroke-width:0.5;stroke-miterlimit:10;stroke-dasharray:none;stroke-dashoffset:0;stroke-opacity:1;filter:url(#filter4666)"
       id="path4476"
       cx="39.599998"
       cy="160.87376"
       r="10.25" /><circle
       style="display:inline;fill:#ffffff;fill-opacity:1;stroke:#ffffff;stroke-width:0.26415095;stroke-miterlimit:10;stroke-dasharray:none;stroke-dashoffset:0;stroke-opacity:1;filter:url(#filter4666)"
       id="path4478"
       cx="37.100006"
       cy="157.87376"
       r="3.3679245" /></g><g
     inkscape:groupmode="layer"
     id="layer3"
     inkscape:label="ray_marching"
     style="display:inline"><path
       d="m 56.000295,158.47058 c 0,-1.09863 -1.650375,-1.09863 -1.650375,0 0,1.104 1.650375,1.104 1.650375,0 z"
       style="display:inline;fill:#782121;fill-opacity:1;fill-rule:evenodd;stroke:none;filter:url(#filter4666)"
       id="path4228"
       inkscape:connector-curvature="0" /><path
       d="m 75.853795,158.41683 c 0,-1.09863 -1.649875,-1.09863 -1.649875,0 0,1.09862 1.649875,1.09862 1.649875,0 z"
       style="display:inline;fill:#782121;fill-opacity:1;fill-rule:evenodd;stroke:none;filter:url(#filter4666)"
       id="path4230"
       inkscape:connector-curvature="0" /><path
       d="m 65.917795,158.45058 c 0,-1.09875 -1.651375,-1.09875 -1.651375,0 0,1.09862 1.651375,1.09862 1.651375,0 z"
       style="display:inline;fill:#782121;fill-opacity:1;fill-rule:evenodd;stroke:none;filter:url(#filter4666)"
       id="path4232"
       inkscape:connector-curvature="0" /><path
       d="m 85.873795,158.49933 c 0,-1.1025 -1.651375,-1.1025 -1.651375,0 0,1.09862 1.651375,1.09862 1.651375,0 z"
       style="display:inline;fill:#782121;fill-opacity:1;fill-rule:evenodd;stroke:none;filter:url(#filter4666)"
       id="path4234"
       inkscape:connector-curvature="0" /><path
       d="m 95.897791,158.45058 c 0,-1.09875 -1.6505,-1.09875 -1.6505,0 0,1.09862 1.6505,1.09862 1.6505,0 z"
       style="display:inline;fill:#782121;fill-opacity:1;fill-rule:evenodd;stroke:none;filter:url(#filter4666)"
       id="path4236"
       inkscape:connector-curvature="0" /><path
       d="m 105.87867,158.49933 c 0,-1.1025 -1.65138,-1.1025 -1.65138,0 0,1.09862 1.65138,1.09862 1.65138,0 z"
       style="display:inline;fill:#782121;fill-opacity:1;fill-rule:evenodd;stroke:none;filter:url(#filter4666)"
       id="path4238"
       inkscape:connector-curvature="0" /><path
       d="m 115.80979,158.3582 c 0,-1.09912 -1.64987,-1.09912 -1.64987,0 0,1.09863 1.64987,1.09863 1.64987,0 z"
       style="display:inline;fill:#782121;fill-opacity:1;fill-rule:evenodd;stroke:none;filter:url(#filter4666)"
       id="path4240"
       inkscape:connector-curvature="0" /><path
       d="m 125.98129,158.52908 c 0,-1.1035 -1.65137,-1.1035 -1.65137,0 0,1.09912 1.65137,1.09912 1.65137,0 z"
       style="display:inline;fill:#782121;fill-opacity:1;fill-rule:evenodd;stroke:none;filter:url(#filter4666)"
       id="path4242"
       inkscape:connector-curvature="0" /><path
       d="m 135.85379,158.43683 c 0,-1.09863 -1.645,-1.09863 -1.645,0 0,1.09862 1.645,1.09862 1.645,0 z"
       style="display:inline;fill:#782121;fill-opacity:1;fill-rule:evenodd;stroke:none;filter:url(#filter4666)"
       id="path4244"
       inkscape:connector-curvature="0" /><path
       d="m 145.87879,158.40708 c 0,-1.09913 -1.65125,-1.09913 -1.65125,0 0,1.09862 1.65125,1.09862 1.65125,0 z"
       style="display:inline;fill:#782121;fill-opacity:1;fill-rule:evenodd;stroke:none;filter:url(#filter4666)"
       id="path4246"
       inkscape:connector-curvature="0" /><path
       d="m 155.87879,158.40708 c 0,-1.09913 -1.65125,-1.09913 -1.65125,0 0,1.09862 1.65125,1.09862 1.65125,0 z"
       style="display:inline;fill:#782121;fill-opacity:1;fill-rule:evenodd;stroke:none;filter:url(#filter4666)"
       id="path4248"
       inkscape:connector-curvature="0" /><path
       d="m 165.84379,158.37283 c 0,-1.09863 -1.65,-1.09863 -1.65,0 0,1.09912 1.65,1.09912 1.65,0 z"
       style="display:inline;fill:#782121;fill-opacity:1;fill-rule:evenodd;stroke:none;filter:url(#filter4666)"
       id="path4250"
       inkscape:connector-curvature="0" /><path
       d="m 185.90754,158.40708 c 0,-1.09913 -1.645,-1.09913 -1.645,0 0,1.09862 1.645,1.09862 1.645,0 z"
       style="display:inline;fill:#782121;fill-opacity:1;fill-rule:evenodd;stroke:none;filter:url(#filter4666)"
       id="path4252"
       inkscape:connector-curvature="0" /><path
       d="m 195.86879,158.40708 c 0,-1.09913 -1.65125,-1.09913 -1.65125,0 0,1.09862 1.65125,1.09862 1.65125,0 z"
       style="display:inline;fill:#782121;fill-opacity:1;fill-rule:evenodd;stroke:none;filter:url(#filter4666)"
       id="path4254"
       inkscape:connector-curvature="0" /><path
       d="m 55.887545,155.73044 c 0,-1.09913 -1.65,-1.09913 -1.65,0 0,1.09862 1.65,1.09862 1.65,0 z"
       style="display:inline;fill:#782121;fill-opacity:1;fill-rule:evenodd;stroke:none;filter:url(#filter4666)"
       id="path4272"
       inkscape:connector-curvature="0" /><path
       d="m 65.853795,154.09019 c 0,-1.09863 -1.645,-1.09863 -1.645,0 0,1.09875 1.645,1.09875 1.645,0 z"
       style="display:inline;fill:#782121;fill-opacity:1;fill-rule:evenodd;stroke:none;filter:url(#filter4666)"
       id="path4274"
       inkscape:connector-curvature="0" /><path
       d="m 75.93142,152.51744 c 0,-1.09863 -1.649875,-1.09863 -1.649875,0 0,1.09912 1.649875,1.09912 1.649875,0 z"
       style="display:inline;fill:#782121;fill-opacity:1;fill-rule:evenodd;stroke:none;filter:url(#filter4666)"
       id="path4276"
       inkscape:connector-curvature="0" /><path
       d="m 85.882545,150.79381 c 0,-1.09862 -1.649875,-1.09862 -1.649875,0 0,1.104 1.649875,1.104 1.649875,0 z"
       style="display:inline;fill:#782121;fill-opacity:1;fill-rule:evenodd;stroke:none;filter:url(#filter4666)"
       id="path4278"
       inkscape:connector-curvature="0" /><path
       d="m 95.825041,149.15769 c 0,-1.09875 -1.65137,-1.09875 -1.65137,0 0,1.104 1.65137,1.104 1.65137,0 z"
       style="display:inline;fill:#782121;fill-opacity:1;fill-rule:evenodd;stroke:none;filter:url(#filter4666)"
       id="path4280"
       inkscape:connector-curvature="0" /><path
       d="m 105.84404,147.46919 c 0,-1.09913 -1.65037,-1.09913 -1.65037,0 0,1.1035 1.65037,1.1035 1.65037,0 z"
       style="display:inline;fill:#782121;fill-opacity:1;fill-rule:evenodd;stroke:none;filter:url(#filter4666)"
       id="path4282"
       inkscape:connector-curvature="0" /><path
       d="m 115.85867,145.73044 c 0,-1.09913 -1.64988,-1.09913 -1.64988,0 0,1.1035 1.64988,1.1035 1.64988,0 z"
       style="display:inline;fill:#782121;fill-opacity:1;fill-rule:evenodd;stroke:none;filter:url(#filter4666)"
       id="path4284"
       inkscape:connector-curvature="0" /><path
       d="m 125.86892,144.08531 c 0,-1.104 -1.65138,-1.104 -1.65138,0 0,1.09863 1.65138,1.09863 1.65138,0 z"
       style="display:inline;fill:#782121;fill-opacity:1;fill-rule:evenodd;stroke:none;filter:url(#filter4666)"
       id="path4286"
       inkscape:connector-curvature="0" /><path
       d="m 135.86891,142.39544 c 0,-1.09913 -1.65137,-1.09913 -1.65137,0 0,1.09862 1.65137,1.09862 1.65137,0 z"
       style="display:inline;fill:#782121;fill-opacity:1;fill-rule:evenodd;stroke:none;filter:url(#filter4666)"
       id="path4288"
       inkscape:connector-curvature="0" /><path
       d="m 145.86879,140.78406 c 0,-1.104 -1.65125,-1.104 -1.65125,0 0,1.09863 1.65125,1.09863 1.65125,0 z"
       style="display:inline;fill:#782121;fill-opacity:1;fill-rule:evenodd;stroke:none;filter:url(#filter4666)"
       id="path4290"
       inkscape:connector-curvature="0" /><path
       d="m 155.89754,139.30628 c 0,-1.09912 -1.65,-1.09912 -1.65,0 0,1.09863 1.65,1.09863 1.65,0 z"
       style="display:inline;fill:#782121;fill-opacity:1;fill-rule:evenodd;stroke:none;filter:url(#filter4666)"
       id="path4292"
       inkscape:connector-curvature="0" /><path
       d="m 55.89242,152.5667 c 0,-1.1025 -1.65,-1.1025 -1.65,0 0,1.09863 1.65,1.09863 1.65,0 z"
       style="display:inline;fill:#782121;fill-opacity:1;fill-rule:evenodd;stroke:none;filter:url(#filter4666)"
       id="path4294"
       inkscape:connector-curvature="0" /><path
       d="m 65.853795,149.60283 c 0,-1.09863 -1.649875,-1.09863 -1.649875,0 0,1.09912 1.649875,1.09912 1.649875,0 z"
       style="display:inline;fill:#782121;fill-opacity:1;fill-rule:evenodd;stroke:none;filter:url(#filter4666)"
       id="path4296"
       inkscape:connector-curvature="0" /><path
       d="m 75.86892,146.74208 c 0,-1.104 -1.651375,-1.104 -1.651375,0 0,1.09862 1.651375,1.09862 1.651375,0 z"
       style="display:inline;fill:#782121;fill-opacity:1;fill-rule:evenodd;stroke:none;filter:url(#filter4666)"
       id="path4298"
       inkscape:connector-curvature="0" /><path
       d="m 85.86892,143.82695 c 0,-1.09912 -1.651375,-1.09912 -1.651375,0 0,1.1035 1.651375,1.1035 1.651375,0 z"
       style="display:inline;fill:#782121;fill-opacity:1;fill-rule:evenodd;stroke:none;filter:url(#filter4666)"
       id="path4300"
       inkscape:connector-curvature="0" /><path
       d="m 95.868921,140.92658 c 0,-1.09863 -1.65138,-1.09863 -1.65138,0 0,1.104 1.65138,1.104 1.65138,0 z"
       style="display:inline;fill:#782121;fill-opacity:1;fill-rule:evenodd;stroke:none;filter:url(#filter4666)"
       id="path4302"
       inkscape:connector-curvature="0" /><path
       d="m 105.85379,138.00183 c 0,-1.09863 -1.64987,-1.09863 -1.64987,0 0,1.104 1.64987,1.104 1.64987,0 z"
       style="display:inline;fill:#782121;fill-opacity:1;fill-rule:evenodd;stroke:none;filter:url(#filter4666)"
       id="path4304"
       inkscape:connector-curvature="0" /><path
       d="m 115.86892,135.01308 c 0,-1.09875 -1.65138,-1.09875 -1.65138,0 0,1.104 1.65138,1.104 1.65138,0 z"
       style="display:inline;fill:#782121;fill-opacity:1;fill-rule:evenodd;stroke:none;filter:url(#filter4666)"
       id="path4306"
       inkscape:connector-curvature="0" /><path
       d="m 125.85379,132.16683 c 0,-1.09863 -1.64987,-1.09863 -1.64987,0 0,1.09862 1.64987,1.09862 1.64987,0 z"
       style="display:inline;fill:#782121;fill-opacity:1;fill-rule:evenodd;stroke:none;filter:url(#filter4666)"
       id="path4308"
       inkscape:connector-curvature="0" /><path
       d="m 135.86891,129.22295 c 0,-1.09862 -1.65137,-1.09862 -1.65137,0 0,1.09763 1.65137,1.09763 1.65137,0 z"
       style="display:inline;fill:#782121;fill-opacity:1;fill-rule:evenodd;stroke:none;filter:url(#filter4666)"
       id="path4310"
       inkscape:connector-curvature="0" /><path
       d="m 145.88254,126.24933 c 0,-1.09863 -1.65,-1.09863 -1.65,0 0,1.09862 1.65,1.09862 1.65,0 z"
       style="display:inline;fill:#782121;fill-opacity:1;fill-rule:evenodd;stroke:none;filter:url(#filter4666)"
       id="path4312"
       inkscape:connector-curvature="0" /><path
       d="m 155.86879,123.45058 c 0,-1.09875 -1.65125,-1.09875 -1.65125,0 0,1.09862 1.65125,1.09862 1.65125,0 z"
       style="display:inline;fill:#782121;fill-opacity:1;fill-rule:evenodd;stroke:none;filter:url(#filter4666)"
       id="path4314"
       inkscape:connector-curvature="0" /><path
       d="m 55.897795,150.88808 c 0,-1.10363 -1.6505,-1.10363 -1.6505,0 0,1.09762 1.6505,1.09762 1.6505,0 z"
       style="display:inline;fill:#782121;fill-opacity:1;fill-rule:evenodd;stroke:none;filter:url(#filter4666)"
       id="path4318"
       inkscape:connector-curvature="0" /><path
       d="m 65.887545,147.14195 c 0,-1.09762 -1.65,-1.09762 -1.65,0 0,1.1035 1.65,1.1035 1.65,0 z"
       style="display:inline;fill:#782121;fill-opacity:1;fill-rule:evenodd;stroke:none;filter:url(#filter4666)"
       id="path4320"
       inkscape:connector-curvature="0" /><path
       d="m 75.844045,143.37283 c 0,-1.09863 -1.650375,-1.09863 -1.650375,0 0,1.09912 1.650375,1.09912 1.650375,0 z"
       style="display:inline;fill:#782121;fill-opacity:1;fill-rule:evenodd;stroke:none;filter:url(#filter4666)"
       id="path4322"
       inkscape:connector-curvature="0" /><path
       d="m 85.882545,139.62283 c 0,-1.09863 -1.649875,-1.09863 -1.649875,0 0,1.09912 1.649875,1.09912 1.649875,0 z"
       style="display:inline;fill:#782121;fill-opacity:1;fill-rule:evenodd;stroke:none;filter:url(#filter4666)"
       id="path4324"
       inkscape:connector-curvature="0" /><path
       d="m 95.863541,135.93195 c 0,-1.09912 -1.64987,-1.09912 -1.64987,0 0,1.1035 1.64987,1.1035 1.64987,0 z"
       style="display:inline;fill:#782121;fill-opacity:1;fill-rule:evenodd;stroke:none;filter:url(#filter4666)"
       id="path4326"
       inkscape:connector-curvature="0" /><path
       d="m 115.83867,128.43195 c 0,-1.09912 -1.64988,-1.09912 -1.64988,0 0,1.09863 1.64988,1.09863 1.64988,0 z"
       style="display:inline;fill:#782121;fill-opacity:1;fill-rule:evenodd;stroke:none;filter:url(#filter4666)"
       id="path4328"
       inkscape:connector-curvature="0" /><path
       d="m 105.85867,132.16195 c 0,-1.09862 -1.64988,-1.09862 -1.64988,0 0,1.09863 1.64988,1.09863 1.64988,0 z"
       style="display:inline;fill:#782121;fill-opacity:1;fill-rule:evenodd;stroke:none;filter:url(#filter4666)"
       id="path4330"
       inkscape:connector-curvature="0" /><path
       d="m 125.91242,124.68683 c 0,-1.09875 -1.64988,-1.09875 -1.64988,0 0,1.09862 1.64988,1.09862 1.64988,0 z"
       style="display:inline;fill:#782121;fill-opacity:1;fill-rule:evenodd;stroke:none;filter:url(#filter4666)"
       id="path4332"
       inkscape:connector-curvature="0" /><path
       d="m 135.88254,120.89683 c 0,-1.1025 -1.64988,-1.1025 -1.64988,0 0,1.09875 1.64988,1.09875 1.64988,0 z"
       style="display:inline;fill:#782121;fill-opacity:1;fill-rule:evenodd;stroke:none;filter:url(#filter4666)"
       id="path4334"
       inkscape:connector-curvature="0" /><path
       d="m 155.96129,113.46558 c 0,-1.09875 -1.65,-1.09875 -1.65,0 0,1.10375 1.65,1.10375 1.65,0 z"
       style="display:inline;fill:#782121;fill-opacity:1;fill-rule:evenodd;stroke:none;filter:url(#filter4666)"
       id="path4336"
       inkscape:connector-curvature="0" /><path
       d="m 165.92254,109.70058 c 0,-1.09875 -1.65125,-1.09875 -1.65125,0 0,1.09875 1.65125,1.09875 1.65125,0 z"
       style="display:inline;fill:#782121;fill-opacity:1;fill-rule:evenodd;stroke:none;filter:url(#filter4666)"
       id="path4338"
       inkscape:connector-curvature="0" /><path
       d="m 175.88254,106.09308 c 0,-1.09875 -1.65,-1.09875 -1.65,0 0,1.09875 1.65,1.09875 1.65,0 z"
       style="display:inline;fill:#782121;fill-opacity:1;fill-rule:evenodd;stroke:none;filter:url(#filter4666)"
       id="path4340"
       inkscape:connector-curvature="0" /><path
       d="m 185.83879,102.24933 c 0,-1.0975 -1.65,-1.0975 -1.65,0 0,1.10375 1.65,1.10375 1.65,0 z"
       style="display:inline;fill:#782121;fill-opacity:1;fill-rule:evenodd;stroke:none;filter:url(#filter4666)"
       id="path4342"
       inkscape:connector-curvature="0" /><path
       d="m 195.86379,98.445565 c 0,-1.097499 -1.65,-1.097499 -1.65,0 0,1.098761 1.65,1.098761 1.65,0 z"
       style="display:inline;fill:#782121;fill-opacity:1;fill-rule:evenodd;stroke:none;filter:url(#filter4666)"
       id="path4344"
       inkscape:connector-curvature="0" /><path
       d="m 205.93129,94.735566 c 0,-1.10375 -1.65,-1.10375 -1.65,0 0,1.09875 1.65,1.09875 1.65,0 z"
       style="display:inline;fill:#782121;fill-opacity:1;fill-rule:evenodd;stroke:none;filter:url(#filter4666)"
       id="path4346"
       inkscape:connector-curvature="0" /><path
       d="m 215.92254,90.883066 c 0,-1.09875 -1.65125,-1.09875 -1.65125,0 0,1.09875 1.65125,1.09875 1.65125,0 z"
       style="display:inline;fill:#782121;fill-opacity:1;fill-rule:evenodd;stroke:none;filter:url(#filter4666)"
       id="path4348"
       inkscape:connector-curvature="0" /><path
       d="m 225.87879,87.151816 c 0,-1.09875 -1.65125,-1.09875 -1.65125,0 0,1.09875 1.65125,1.09875 1.65125,0 z"
       style="display:inline;fill:#782121;fill-opacity:1;fill-rule:evenodd;stroke:none;filter:url(#filter4666)"
       id="path4350"
       inkscape:connector-curvature="0" /><path
       d="m 235.85879,83.396816 c 0,-1.09875 -1.65,-1.09875 -1.65,0 0,1.09875 1.65,1.09875 1.65,0 z"
       style="display:inline;fill:#782121;fill-opacity:1;fill-rule:evenodd;stroke:none;filter:url(#filter4666)"
       id="path4352"
       inkscape:connector-curvature="0" /><path
       d="m 245.87379,79.749316 c 0,-1.0975 -1.65125,-1.0975 -1.65125,0 0,1.09875 1.65125,1.09875 1.65125,0 z"
       style="display:inline;fill:#782121;fill-opacity:1;fill-rule:evenodd;stroke:none;filter:url(#filter4666)"
       id="path4354"
       inkscape:connector-curvature="0" /><path
       d="m 255.85379,76.039316 c 0,-1.09875 -1.65,-1.09875 -1.65,0 0,1.09875 1.65,1.09875 1.65,0 z"
       style="display:inline;fill:#782121;fill-opacity:1;fill-rule:evenodd;stroke:none;filter:url(#filter4666)"
       id="path4356"
       inkscape:connector-curvature="0" /><path
       d="m 265.87879,72.279316 c 0,-1.09875 -1.65125,-1.09875 -1.65125,0 0,1.09875 1.65125,1.09875 1.65125,0 z"
       style="display:inline;fill:#782121;fill-opacity:1;fill-rule:evenodd;stroke:none;filter:url(#filter4666)"
       id="path4358"
       inkscape:connector-curvature="0" /><path
       d="m 275.84879,68.353066 c 0,-1.09875 -1.645,-1.09875 -1.645,0 0,1.09875 1.645,1.09875 1.645,0 z"
       style="display:inline;fill:#782121;fill-opacity:1;fill-rule:evenodd;stroke:none;filter:url(#filter4666)"
       id="path4360"
       inkscape:connector-curvature="0" /><path
       d="m 145.84379,117.02058 c 0,-1.09875 -1.65,-1.09875 -1.65,0 0,1.09875 1.65,1.09875 1.65,0 z"
       style="display:inline;fill:#782121;fill-opacity:1;fill-rule:evenodd;stroke:none;filter:url(#filter4666)"
       id="path4362"
       inkscape:connector-curvature="0" /><flowRoot
       xml:space="preserve"
       id="flowRoot4450"
       style="font-style:normal;font-variant:normal;font-weight:normal;font-stretch:normal;font-size:15px;line-height:125%;font-family:sans-serif;-inkscape-font-specification:'sans-serif, Normal';text-align:start;letter-spacing:0px;word-spacing:0px;writing-mode:lr-tb;text-anchor:start;display:inline;fill:#000000;fill-opacity:1;stroke:none;stroke-width:1px;stroke-linecap:butt;stroke-linejoin:miter;stroke-opacity:1;filter:url(#filter4666)"
       transform="translate(12.728795,-1.8956888)"><flowRegion
         id="flowRegion4452"><rect
           id="rect4454"
           width="48.436813"
           height="16.440233"
           x="174.65538"
           y="228.79936" /></flowRegion><flowPara
         id="flowPara4456">Ho</flowPara></flowRoot><text
       xml:space="preserve"
       style="font-style:normal;font-variant:normal;font-weight:normal;font-stretch:normal;font-size:8.1132803px;line-height:125%;font-family:sans-serif;-inkscape-font-specification:'sans-serif, Normal';text-align:start;letter-spacing:0px;word-spacing:0px;writing-mode:lr-tb;text-anchor:start;display:inline;fill:#782121;fill-opacity:1;stroke:none;stroke-width:1px;stroke-linecap:butt;stroke-linejoin:miter;stroke-opacity:1;filter:url(#filter4666)"
       x="202.66708"
       y="160.60751"
       id="text4486"
       sodipodi:linespacing="125%"><tspan
         sodipodi:role="line"
         id="tspan4488"
         x="202.66708"
         y="160.60751">x</tspan></text>
<text
       xml:space="preserve"
       style="font-style:normal;font-variant:normal;font-weight:normal;font-stretch:normal;font-size:8.1132803px;line-height:125%;font-family:sans-serif;-inkscape-font-specification:'sans-serif, Normal';text-align:start;letter-spacing:0px;word-spacing:0px;writing-mode:lr-tb;text-anchor:start;display:inline;fill:#782121;fill-opacity:1;stroke:none;stroke-width:1px;stroke-linecap:butt;stroke-linejoin:miter;stroke-opacity:1;filter:url(#filter4666-9)"
       x="162.58765"
       y="123.01299"
       id="text4486-2"
       sodipodi:linespacing="125%"><tspan
         sodipodi:role="line"
         id="tspan4488-5"
         x="162.58765"
         y="123.01299">x</tspan></text>
<path
       inkscape:connector-curvature="0"
       id="path4237"
       style="display:inline;fill:#782121;fill-opacity:1;fill-rule:evenodd;stroke:none;filter:url(#filter4666)"
       d="m 165.70865,137.6269 c 0,-1.09912 -1.65,-1.09912 -1.65,0 0,1.09863 1.65,1.09863 1.65,0 z" /><path
       inkscape:connector-curvature="0"
       id="path4239"
       style="display:inline;fill:#782121;fill-opacity:1;fill-rule:evenodd;stroke:none;filter:url(#filter4666)"
       d="m 175.88254,158.68415 c 0,-1.09875 -1.65,-1.09875 -1.65,0 0,1.09875 1.65,1.09875 1.65,0 z" /><path
       d="m 175.87331,136.01447 c 0,-1.09912 -1.65,-1.09912 -1.65,0 0,1.09863 1.65,1.09863 1.65,0 z"
       style="display:inline;fill:#782121;fill-opacity:1;fill-rule:evenodd;stroke:none;filter:url(#filter4666)"
       id="path4947"
       inkscape:connector-curvature="0" /></g></svg>